<?xml version="1.0" encoding="utf-8"?>
<!-- Generator: Adobe Illustrator 18.1.1, SVG Export Plug-In . SVG Version: 6.00 Build 0)  -->
<!DOCTYPE svg PUBLIC "-//W3C//DTD SVG 1.1//EN" "http://www.w3.org/Graphics/SVG/1.1/DTD/svg11.dtd">
<svg version="1.1" id="Layer_1" xmlns="http://www.w3.org/2000/svg" xmlns:xlink="http://www.w3.org/1999/xlink" x="0px" y="0px"
	 viewBox="0 0 612 127" enable-background="new 0 0 612 127" xml:space="preserve">
<g>
	<path fill="#662D91" d="M147.6,48.6c-1.6-2-4-3.1-7.1-3.1c-6.3,0-10.9,5.1-10.9,12.1c0,7,4.6,12.1,10.6,12.1c3.4,0,6.1-1.5,7.8-4
		l6.9,5.2c-3.1,4.5-8.5,6.5-13.6,6.5c-11.8,0-20.3-7.7-20.3-19.8c0-12.1,8.6-19.8,20.3-19.8c4.2,0,9.5,1.4,12.7,5.5L147.6,48.6z"/>
</g>
<rect x="158.5" y="36.3" fill="#662D91" width="8" height="40.2"/>
<g>
	<path fill="#662D91" d="M189.9,60.7c0.1-2.7-2-4.9-4.9-4.9c-3.5,0-5.4,2.4-5.6,4.9H189.9z M196.7,72.1c-2.6,3.2-6.8,5.1-10.9,5.1
		c-8,0-14.4-5.3-14.4-13.6c0-8.2,6.4-13.6,14.4-13.6c7.4,0,12.1,5.3,12.1,13.6v2.5h-18.5c0.6,3,2.9,5,6,5c2.6,0,4.4-1.3,5.7-3.1
		L196.7,72.1z"/>
	<path fill="#662D91" d="M217,65.2c-2.4,0-7.9,0.2-7.9,3.7c0,1.9,2,2.8,3.8,2.8c3.1,0,6.1-1.6,6.1-4.8v-1.7H217z M218.9,73.3h-0.1
		c-1.8,2.8-4.9,3.9-8.2,3.9c-4.8,0-9.2-2.8-9.2-8c0-8.9,10.9-9.1,17.5-9.1c0-2.8-2.3-4.6-5.1-4.6c-2.6,0-4.8,1.2-6.5,3.1l-4.3-4.4
		c2.9-2.8,7.2-4.1,11.4-4.1c9.3,0,11.8,4.7,11.8,13.4v13.1h-7.3V73.3z"/>
	<path fill="#662D91" d="M231.3,50.7h8v4.1h0.1c1.7-3.1,3.9-4.8,7.4-4.8c0.9,0,1.9,0.1,2.7,0.3v7.3c-1.1-0.3-2.2-0.5-3.4-0.5
		c-6.1,0-6.8,3.5-6.8,8.7v10.8h-8V50.7z"/>
	<path fill="#662D91" d="M278.6,48.6c-1.6-2-4-3.1-7.1-3.1c-6.3,0-10.9,5.1-10.9,12.1c0,7,4.6,12.1,10.6,12.1c3.4,0,6.1-1.5,7.8-4
		l6.9,5.2c-3.1,4.5-8.5,6.5-13.6,6.5c-11.8,0-20.3-7.7-20.3-19.8c0-12.1,8.6-19.8,20.3-19.8c4.2,0,9.5,1.4,12.7,5.5L278.6,48.6z"/>
	<path fill="#662D91" d="M302.8,70.1c4,0,6.4-2.7,6.4-6.5c0-3.9-2.4-6.5-6.4-6.5c-4,0-6.4,2.7-6.4,6.5
		C296.4,67.5,298.8,70.1,302.8,70.1 M302.8,50c8,0,14.4,5.3,14.4,13.6c0,8.2-6.4,13.6-14.4,13.6c-8,0-14.4-5.3-14.4-13.6
		C288.4,55.3,294.8,50,302.8,50"/>
	<path fill="#662D91" d="M336.4,58.3c-1.2-1.4-2.7-2.2-4.6-2.2c-1.3,0-2.9,0.6-2.9,2.1c0,3.8,13.5,0.6,13.5,10.4
		c0,6.6-6.4,8.5-11.9,8.5c-3.6,0-7.6-0.9-10.2-3.5l4.8-5.4c1.5,1.8,3.2,2.8,5.6,2.8c1.8,0,3.6-0.5,3.6-1.9c0-4.1-13.5-0.6-13.5-10.5
		c0-6.1,5.4-8.7,10.9-8.7c3.4,0,7.2,0.9,9.6,3.4L336.4,58.3z"/>
	<path fill="#662D91" d="M364,57.1h-7v8.6c0,2.8,0.3,4.8,3.8,4.8c0.9,0,2.6-0.1,3.2-0.7v6.6c-1.8,0.6-3.7,0.8-5.6,0.8
		c-5.3,0-9.4-2.2-9.4-7.8V57.1h-5.1v-6.4h5.1V43h8v7.7h7V57.1z"/>
</g>
<polygon fill="#6CAD44" points="378.4,38.9 386.7,38.9 386.7,52.9 402.9,52.9 402.9,38.9 411.2,38.9 411.2,76.5 402.9,76.5 
	402.9,60.2 386.7,60.2 386.7,76.5 378.4,76.5 "/>
<g>
	<path fill="#6CAD44" d="M435.5,60.7c0.1-2.7-2-4.9-4.9-4.9c-3.5,0-5.4,2.4-5.6,4.9H435.5z M442.3,72.1c-2.6,3.2-6.8,5.1-10.9,5.1
		c-8,0-14.4-5.3-14.4-13.6c0-8.2,6.4-13.6,14.4-13.6c7.4,0,12.1,5.3,12.1,13.6v2.5H425c0.6,3,2.9,5,6,5c2.6,0,4.4-1.3,5.7-3.1
		L442.3,72.1z"/>
	<path fill="#6CAD44" d="M462.6,65.2c-2.4,0-7.9,0.2-7.9,3.7c0,1.9,2,2.8,3.8,2.8c3.1,0,6.1-1.6,6.1-4.8v-1.7H462.6z M464.6,73.3
		h-0.1c-1.8,2.8-4.9,3.9-8.2,3.9c-4.8,0-9.2-2.8-9.2-8c0-8.9,10.8-9.1,17.5-9.1c0-2.8-2.3-4.6-5.1-4.6c-2.6,0-4.8,1.2-6.5,3.1
		l-4.3-4.4c2.9-2.8,7.2-4.1,11.4-4.1c9.3,0,11.8,4.7,11.8,13.4v13.1h-7.3V73.3z"/>
</g>
<rect x="477" y="36.3" fill="#6CAD44" width="8" height="40.2"/>
<path fill="#6CAD44" d="M508.3,57.1h-7v8.6c0,2.8,0.3,4.8,3.8,4.8c0.9,0,2.6-0.1,3.2-0.7v6.6c-1.8,0.6-3.7,0.8-5.6,0.8
	c-5.3,0-9.4-2.2-9.4-7.8V57.1h-5.1v-6.4h5.1V43h8v7.7h7V57.1z"/>
<path fill="#6CAD44" d="M520.3,36.3v17.9h0.1c0.7-2,3.4-4.1,7.2-4.1c8.1,0,9.6,5.3,9.6,12.2v14.3h-8V63.9c0-3-0.1-6.8-4.1-6.8
	c-4.1,0-4.8,3.2-4.8,6.6v12.9h-8V36.3H520.3z"/>
<path fill="#662D91" d="M51.6,67.6V41.2h-9.2c-6,0-10.8,4.9-10.8,10.8v35.6c0,6,4.9,10.8,10.8,10.8H78c6,0,10.8-4.9,10.8-10.8v-9.2
	H62.5C56.5,78.4,51.6,73.6,51.6,67.6"/>
<path fill="#6BAD44" d="M98,21.2H62.5c-6,0-10.8,4.9-10.8,10.8v9.2H78c6,0,10.8,4.9,10.8,10.8v26.4H98c6,0,10.8-4.9,10.8-10.8V32
	C108.9,26,104,21.2,98,21.2"/>
<path fill="#FFFFFF" d="M78,41.2H51.6v26.4c0,6,4.9,10.8,10.8,10.8h26.4V52C88.9,46,84,41.2,78,41.2"/>
<g>
	<path fill="#6CAD44" d="M539.6,34.4c2.5,0,4.5,2,4.5,4.5s-2,4.5-4.5,4.5c-2.5,0-4.5-2-4.5-4.5S537.1,34.4,539.6,34.4z M539.6,42.3
		c1.9,0,3.3-1.5,3.3-3.5c0-1.9-1.5-3.5-3.3-3.5c-1.9,0-3.3,1.5-3.3,3.5C536.3,40.8,537.7,42.3,539.6,42.3z M537.8,36.5h1.5
		c1.1,0,2.1,0.3,2.1,1.4c0,0.8-0.6,1.4-1.1,1.4l1.2,1.9h-1.3l-1.1-1.8H539v1.8h-1.2V36.5z M539,38.4h0.6c0.3,0,0.8,0,0.8-0.5
		c0-0.5-0.5-0.5-0.8-0.5H539V38.4z"/>
</g>
<g>
</g>
<g>
</g>
<g>
</g>
<g>
</g>
<g>
</g>
<g>
</g>
</svg>
