<?xml version="1.0" encoding="utf-8"?>
<!-- Generator: Adobe Illustrator 18.1.1, SVG Export Plug-In . SVG Version: 6.00 Build 0)  -->
<!DOCTYPE svg PUBLIC "-//W3C//DTD SVG 1.1//EN" "http://www.w3.org/Graphics/SVG/1.1/DTD/svg11.dtd">
<svg version="1.1" id="Layer_1" xmlns="http://www.w3.org/2000/svg" xmlns:xlink="http://www.w3.org/1999/xlink" x="0px" y="0px"
	 viewBox="0 0 520 520" enable-background="new 0 0 520 520" xml:space="preserve">
<g>
	<path fill="#662D91" d="M119.972,248.109c-1.615-2.019-4.039-3.13-7.169-3.13c-6.361,0-11.005,5.149-11.005,12.217
		s4.645,12.217,10.703,12.217c3.433,0,6.159-1.515,7.875-4.039l6.967,5.25c-3.13,4.544-8.582,6.563-13.732,6.563
		c-11.914,0-20.496-7.774-20.496-19.992c0-12.217,8.683-19.992,20.496-19.992c4.241,0,9.592,1.414,12.823,5.553L119.972,248.109z"/>
</g>
<rect x="130.977" y="235.69" fill="#662D91" width="8.077" height="40.589"/>
<g>
	<path fill="#662D91" d="M162.681,260.326c0.101-2.726-2.019-4.947-4.947-4.947c-3.534,0-5.452,2.423-5.654,4.947H162.681z
		 M169.547,271.836c-2.625,3.231-6.866,5.149-11.005,5.149c-8.077,0-14.539-5.351-14.539-13.732c0-8.279,6.462-13.732,14.539-13.732
		c7.472,0,12.217,5.351,12.217,13.732v2.524h-18.679c0.606,3.029,2.928,5.048,6.058,5.048c2.625,0,4.443-1.313,5.755-3.13
		L169.547,271.836z"/>
	<path fill="#662D91" d="M190.043,264.869c-2.423,0-7.976,0.202-7.976,3.736c0,1.918,2.019,2.827,3.837,2.827
		c3.13,0,6.159-1.615,6.159-4.846v-1.716H190.043z M191.961,273.048h-0.101c-1.817,2.827-4.947,3.938-8.279,3.938
		c-4.846,0-9.289-2.827-9.289-8.077c0-8.986,11.005-9.188,17.669-9.188c0-2.827-2.322-4.644-5.149-4.644
		c-2.625,0-4.846,1.212-6.563,3.13l-4.342-4.443c2.928-2.827,7.27-4.14,11.51-4.14c9.39,0,11.914,4.745,11.914,13.53v13.227h-7.371
		L191.961,273.048L191.961,273.048z"/>
	<path fill="#662D91" d="M204.481,250.229h8.077v4.14h0.101c1.716-3.13,3.938-4.846,7.472-4.846c0.909,0,1.918,0.101,2.726,0.303
		v7.371c-1.111-0.303-2.221-0.505-3.433-0.505c-6.159,0-6.866,3.534-6.866,8.784v10.904h-8.077V250.229z"/>
	<path fill="#662D91" d="M252.239,248.109c-1.615-2.019-4.039-3.13-7.169-3.13c-6.361,0-11.005,5.149-11.005,12.217
		s4.645,12.217,10.703,12.217c3.433,0,6.159-1.515,7.875-4.039l6.967,5.25c-3.13,4.544-8.582,6.563-13.732,6.563
		c-11.914,0-20.496-7.774-20.496-19.992c0-12.217,8.683-19.992,20.496-19.992c4.241,0,9.592,1.414,12.823,5.553L252.239,248.109z"/>
	<path fill="#662D91" d="M276.673,269.817c4.039,0,6.462-2.726,6.462-6.563c0-3.938-2.423-6.563-6.462-6.563
		s-6.462,2.726-6.462,6.563C270.211,267.191,272.634,269.817,276.673,269.817 M276.673,249.522c8.077,0,14.539,5.351,14.539,13.732
		c0,8.279-6.462,13.732-14.539,13.732s-14.539-5.351-14.539-13.732C262.134,254.873,268.596,249.522,276.673,249.522"/>
	<path fill="#662D91" d="M310.598,257.902c-1.212-1.414-2.726-2.221-4.645-2.221c-1.313,0-2.928,0.606-2.928,2.12
		c0,3.837,13.631,0.606,13.631,10.501c0,6.664-6.462,8.582-12.015,8.582c-3.635,0-7.674-0.909-10.299-3.534l4.846-5.452
		c1.514,1.817,3.231,2.827,5.654,2.827c1.817,0,3.635-0.505,3.635-1.918c0-4.14-13.631-0.606-13.631-10.602
		c0-6.159,5.452-8.784,11.005-8.784c3.433,0,7.27,0.909,9.693,3.433L310.598,257.902z"/>
	<path fill="#662D91" d="M338.465,256.691h-7.068v8.683c0,2.827,0.303,4.846,3.837,4.846c0.909,0,2.625-0.101,3.231-0.707v6.664
		c-1.817,0.606-3.736,0.808-5.654,0.808c-5.351,0-9.491-2.221-9.491-7.875v-12.419h-5.149v-6.462h5.149v-7.774h8.077v7.774h7.068
		V256.691z"/>
</g>
<polygon fill="#6CAD44" points="353.004,238.315 361.385,238.315 361.385,252.45 377.741,252.45 377.741,238.315 386.122,238.315 
	386.122,276.279 377.741,276.279 377.741,259.821 361.385,259.821 361.385,276.279 353.004,276.279 "/>
<g>
	<path fill="#6CAD44" d="M410.657,260.326c0.101-2.726-2.019-4.947-4.947-4.947c-3.534,0-5.452,2.423-5.654,4.947H410.657z
		 M417.522,271.836c-2.625,3.231-6.866,5.149-11.005,5.149c-8.077,0-14.539-5.351-14.539-13.732c0-8.279,6.462-13.732,14.539-13.732
		c7.472,0,12.217,5.351,12.217,13.732v2.524h-18.679c0.606,3.029,2.928,5.048,6.058,5.048c2.625,0,4.443-1.313,5.755-3.13
		L417.522,271.836z"/>
	<path fill="#6CAD44" d="M438.019,264.869c-2.423,0-7.976,0.202-7.976,3.736c0,1.918,2.019,2.827,3.837,2.827
		c3.13,0,6.159-1.615,6.159-4.846v-1.716H438.019z M440.038,273.048h-0.101c-1.817,2.827-4.947,3.938-8.279,3.938
		c-4.846,0-9.289-2.827-9.289-8.077c0-8.986,10.904-9.188,17.669-9.188c0-2.827-2.322-4.644-5.149-4.644
		c-2.625,0-4.846,1.212-6.563,3.13l-4.342-4.443c2.928-2.827,7.27-4.14,11.51-4.14c9.39,0,11.914,4.745,11.914,13.53v13.227h-7.371
		L440.038,273.048L440.038,273.048z"/>
</g>
<rect x="452.558" y="235.69" fill="#6CAD44" width="8.077" height="40.589"/>
<path fill="#6CAD44" d="M484.161,256.691h-7.068v8.683c0,2.827,0.303,4.846,3.837,4.846c0.909,0,2.625-0.101,3.231-0.707v6.664
	c-1.817,0.606-3.736,0.808-5.654,0.808c-5.351,0-9.491-2.221-9.491-7.875v-12.419h-5.149v-6.462h5.149v-7.774h8.077v7.774h7.068
	V256.691z"/>
<path fill="#6CAD44" d="M496.277,235.69v18.073h0.101c0.707-2.019,3.433-4.14,7.27-4.14c8.178,0,9.693,5.351,9.693,12.318v14.438
	h-8.077v-12.823c0-3.029-0.101-6.866-4.14-6.866c-4.14,0-4.846,3.231-4.846,6.664v13.025H488.2v-40.69H496.277z"/>
<path fill="#662D91" d="M23.043,267.292v-26.655h-9.289c-6.058,0-10.904,4.947-10.904,10.904v35.944
	c0,6.058,4.947,10.904,10.904,10.904h35.944c6.058,0,10.904-4.947,10.904-10.904v-9.289H34.049
	C27.991,278.197,23.043,273.35,23.043,267.292"/>
<path fill="#6BAD44" d="M69.892,220.444H34.049c-6.058,0-10.904,4.947-10.904,10.904v9.289h26.554
	c6.058,0,10.904,4.947,10.904,10.904v26.655h9.289c6.058,0,10.904-4.947,10.904-10.904v-35.944
	C80.897,225.29,75.95,220.444,69.892,220.444"/>
<path fill="#FFFFFF" d="M49.699,240.637H23.043v26.655c0,6.058,4.947,10.904,10.904,10.904h26.655v-26.655
	C60.704,245.483,55.757,240.637,49.699,240.637"/>
<g>
	<path fill="#6CAD44" d="M515.764,233.771c2.524,0,4.544,2.019,4.544,4.544s-2.019,4.544-4.544,4.544
		c-2.524,0-4.544-2.019-4.544-4.544S513.239,233.771,515.764,233.771z M515.764,241.748c1.918,0,3.332-1.515,3.332-3.534
		c0-1.918-1.515-3.534-3.332-3.534c-1.918,0-3.332,1.515-3.332,3.534C512.432,240.233,513.845,241.748,515.764,241.748z
		 M513.946,235.892h1.515c1.111,0,2.12,0.303,2.12,1.414c0,0.808-0.606,1.414-1.111,1.414l1.212,1.918h-1.313l-1.111-1.817h-0.101
		v1.817h-1.212V235.892z M515.158,237.81h0.606c0.303,0,0.808,0,0.808-0.505s-0.505-0.505-0.808-0.505h-0.606V237.81z"/>
</g>
</svg>
