<?xml version="1.0" encoding="utf-8"?>
<!-- Generator: Adobe Illustrator 18.1.1, SVG Export Plug-In . SVG Version: 6.00 Build 0)  -->
<!DOCTYPE svg PUBLIC "-//W3C//DTD SVG 1.1//EN" "http://www.w3.org/Graphics/SVG/1.1/DTD/svg11.dtd">
<svg version="1.1" id="Layer_1" xmlns="http://www.w3.org/2000/svg" xmlns:xlink="http://www.w3.org/1999/xlink" x="0px" y="0px"
	 viewBox="-8 214 528 92" enable-background="new -8 214 528 92" xml:space="preserve">
<g>
	<path fill="#662D91" d="M115.122,248.109c-1.615-2.019-4.039-3.13-7.169-3.13c-6.361,0-11.005,5.149-11.005,12.217
		s4.645,12.217,10.703,12.217c3.433,0,6.159-1.515,7.875-4.039l6.967,5.25c-3.13,4.544-8.582,6.563-13.732,6.563
		c-11.914,0-20.496-7.774-20.496-19.992c0-12.217,8.683-19.992,20.496-19.992c4.241,0,9.592,1.414,12.823,5.553L115.122,248.109z"/>
</g>
<rect x="126.128" y="235.69" fill="#662D91" width="8.077" height="40.589"/>
<g>
	<path fill="#662D91" d="M157.831,260.326c0.101-2.726-2.019-4.947-4.947-4.947c-3.534,0-5.452,2.423-5.654,4.947H157.831z
		 M164.697,271.836c-2.625,3.231-6.866,5.149-11.005,5.149c-8.077,0-14.539-5.351-14.539-13.732c0-8.279,6.462-13.732,14.539-13.732
		c7.472,0,12.217,5.351,12.217,13.732v2.524H147.23c0.606,3.029,2.928,5.048,6.058,5.048c2.625,0,4.443-1.313,5.755-3.13
		L164.697,271.836z"/>
	<path fill="#662D91" d="M185.193,264.869c-2.423,0-7.976,0.202-7.976,3.736c0,1.918,2.019,2.827,3.837,2.827
		c3.13,0,6.159-1.615,6.159-4.846v-1.716H185.193z M187.112,273.048h-0.101c-1.817,2.827-4.947,3.938-8.279,3.938
		c-4.846,0-9.289-2.827-9.289-8.077c0-8.986,11.005-9.188,17.669-9.188c0-2.827-2.322-4.644-5.149-4.644
		c-2.625,0-4.846,1.212-6.563,3.13l-4.342-4.443c2.928-2.827,7.27-4.14,11.51-4.14c9.39,0,11.914,4.745,11.914,13.53v13.227h-7.371
		L187.112,273.048L187.112,273.048z"/>
	<path fill="#662D91" d="M199.632,250.229h8.077v4.14h0.101c1.716-3.13,3.938-4.846,7.472-4.846c0.909,0,1.918,0.101,2.726,0.303
		v7.371c-1.111-0.303-2.221-0.505-3.433-0.505c-6.159,0-6.866,3.534-6.866,8.784v10.904h-8.077V250.229z"/>
	<path fill="#662D91" d="M247.389,248.109c-1.615-2.019-4.039-3.13-7.169-3.13c-6.361,0-11.005,5.149-11.005,12.217
		s4.645,12.217,10.703,12.217c3.433,0,6.159-1.515,7.875-4.039l6.967,5.25c-3.13,4.544-8.582,6.563-13.732,6.563
		c-11.914,0-20.496-7.774-20.496-19.992c0-12.217,8.683-19.992,20.496-19.992c4.241,0,9.592,1.414,12.823,5.553L247.389,248.109z"/>
	<path fill="#662D91" d="M271.823,269.817c4.039,0,6.462-2.726,6.462-6.563c0-3.938-2.423-6.563-6.462-6.563
		s-6.462,2.726-6.462,6.563C265.361,267.191,267.785,269.817,271.823,269.817 M271.823,249.522c8.077,0,14.539,5.351,14.539,13.732
		c0,8.279-6.462,13.732-14.539,13.732s-14.539-5.351-14.539-13.732C257.284,254.873,263.746,249.522,271.823,249.522"/>
	<path fill="#662D91" d="M305.748,257.902c-1.212-1.414-2.726-2.221-4.645-2.221c-1.313,0-2.928,0.606-2.928,2.12
		c0,3.837,13.631,0.606,13.631,10.501c0,6.664-6.462,8.582-12.015,8.582c-3.635,0-7.674-0.909-10.299-3.534l4.846-5.452
		c1.514,1.817,3.231,2.827,5.654,2.827c1.817,0,3.635-0.505,3.635-1.918c0-4.14-13.631-0.606-13.631-10.602
		c0-6.159,5.452-8.784,11.005-8.784c3.433,0,7.27,0.909,9.693,3.433L305.748,257.902z"/>
	<path fill="#662D91" d="M333.615,256.691h-7.068v8.683c0,2.827,0.303,4.846,3.837,4.846c0.909,0,2.625-0.101,3.231-0.707v6.664
		c-1.817,0.606-3.736,0.808-5.654,0.808c-5.351,0-9.491-2.221-9.491-7.875v-12.419h-5.149v-6.462h5.149v-7.774h8.077v7.774h7.068
		V256.691z"/>
</g>
<polygon fill="#6CAD44" points="348.155,238.315 356.535,238.315 356.535,252.45 372.892,252.45 372.892,238.315 381.272,238.315 
	381.272,276.279 372.892,276.279 372.892,259.821 356.535,259.821 356.535,276.279 348.155,276.279 "/>
<g>
	<path fill="#6CAD44" d="M405.807,260.326c0.101-2.726-2.019-4.947-4.947-4.947c-3.534,0-5.452,2.423-5.654,4.947H405.807z
		 M412.673,271.836c-2.625,3.231-6.866,5.149-11.005,5.149c-8.077,0-14.539-5.351-14.539-13.732c0-8.279,6.462-13.732,14.539-13.732
		c7.472,0,12.217,5.351,12.217,13.732v2.524h-18.679c0.606,3.029,2.928,5.048,6.058,5.048c2.625,0,4.443-1.313,5.755-3.13
		L412.673,271.836z"/>
	<path fill="#6CAD44" d="M433.169,264.869c-2.423,0-7.976,0.202-7.976,3.736c0,1.918,2.019,2.827,3.837,2.827
		c3.13,0,6.159-1.615,6.159-4.846v-1.716H433.169z M435.189,273.048h-0.101c-1.817,2.827-4.947,3.938-8.279,3.938
		c-4.846,0-9.289-2.827-9.289-8.077c0-8.986,10.904-9.188,17.669-9.188c0-2.827-2.322-4.644-5.149-4.644
		c-2.625,0-4.846,1.212-6.563,3.13l-4.342-4.443c2.928-2.827,7.27-4.14,11.51-4.14c9.39,0,11.914,4.745,11.914,13.53v13.227h-7.371
		L435.189,273.048L435.189,273.048z"/>
</g>
<rect x="447.708" y="235.69" fill="#6CAD44" width="8.077" height="40.589"/>
<path fill="#6CAD44" d="M479.311,256.691h-7.068v8.683c0,2.827,0.303,4.846,3.837,4.846c0.909,0,2.625-0.101,3.231-0.707v6.664
	c-1.817,0.606-3.736,0.808-5.654,0.808c-5.351,0-9.491-2.221-9.491-7.875v-12.419h-5.149v-6.462h5.149v-7.774h8.077v7.774h7.068
	V256.691z"/>
<path fill="#6CAD44" d="M491.427,235.69v18.073h0.101c0.707-2.019,3.433-4.14,7.27-4.14c8.178,0,9.693,5.351,9.693,12.318v14.438
	h-8.077v-12.823c0-3.029-0.101-6.866-4.14-6.866c-4.14,0-4.846,3.231-4.846,6.664v13.025h-8.077v-40.69H491.427z"/>
<path fill="#662D91" d="M18.193,267.292v-26.655H8.904C2.846,240.637-2,245.584-2,251.542v35.944
	c0,6.058,4.947,10.904,10.904,10.904h35.944c6.058,0,10.904-4.947,10.904-10.904v-9.289H29.199
	C23.141,278.197,18.193,273.35,18.193,267.292"/>
<path fill="#6BAD44" d="M65.042,220.444H29.199c-6.058,0-10.904,4.947-10.904,10.904v9.289h26.554
	c6.058,0,10.904,4.947,10.904,10.904v26.655h9.289c6.058,0,10.904-4.947,10.904-10.904v-35.944
	C76.048,225.29,71.1,220.444,65.042,220.444"/>
<path fill="#FFFFFF" d="M44.849,240.637H18.193v26.655c0,6.058,4.947,10.904,10.904,10.904h26.655v-26.655
	C55.854,245.483,50.907,240.637,44.849,240.637"/>
<g>
	<path fill="#6CAD44" d="M510.914,233.771c2.524,0,4.544,2.019,4.544,4.544s-2.019,4.544-4.544,4.544
		c-2.524,0-4.544-2.019-4.544-4.544S508.39,233.771,510.914,233.771z M510.914,241.748c1.918,0,3.332-1.515,3.332-3.534
		c0-1.918-1.515-3.534-3.332-3.534c-1.918,0-3.332,1.515-3.332,3.534C507.582,240.233,508.996,241.748,510.914,241.748z
		 M509.097,235.892h1.515c1.111,0,2.12,0.303,2.12,1.414c0,0.808-0.606,1.414-1.111,1.414l1.212,1.918h-1.313l-1.111-1.817h-0.101
		v1.817h-1.212V235.892z M510.308,237.81h0.606c0.303,0,0.808,0,0.808-0.505s-0.505-0.505-0.808-0.505h-0.606V237.81z"/>
</g>
</svg>
