<?xml version="1.0" encoding="utf-8"?>
<!-- Generator: Adobe Illustrator 18.1.1, SVG Export Plug-In . SVG Version: 6.00 Build 0)  -->
<!DOCTYPE svg PUBLIC "-//W3C//DTD SVG 1.1//EN" "http://www.w3.org/Graphics/SVG/1.1/DTD/svg11.dtd">
<svg version="1.1" id="Layer_1" xmlns="http://www.w3.org/2000/svg" xmlns:xlink="http://www.w3.org/1999/xlink" x="0px" y="0px"
	 viewBox="0 0 1048.15 238" enable-background="new 0 0 1048.15 238" xml:space="preserve">
<g>
	<g>
		<g>
			<circle fill="#F7AF19" cx="628.816" cy="193.596" r="16.452"/>
			<circle fill="#E2B031" cx="561.141" cy="193.646" r="14.92"/>
			<circle fill="#CEB04A" cx="493.465" cy="193.695" r="13.389"/>
			<circle fill="#B9B162" cx="425.789" cy="193.745" r="11.857"/>
			<circle fill="#A4B27B" cx="358.113" cy="193.794" r="10.325"/>
			<circle fill="#90B293" cx="290.437" cy="193.844" r="8.794"/>
			<circle fill="#7BB3AC" cx="222.761" cy="193.893" r="7.262"/>
			<circle fill="#66B4C4" cx="155.085" cy="193.943" r="5.73"/>
			<circle fill="#52B4DD" cx="87.409" cy="193.992" r="4.199"/>
			<circle fill="#3DB5F5" cx="19.733" cy="194.042" r="2.667"/>
		</g>
	</g>
	<g>
		<path fill="#666666" d="M720.791,208.527c0,0.372-0.187,0.558-0.559,0.558h-1.302c-0.434,0-0.558-0.186-0.558-0.558V187.82
			c0-5.394-2.356-8.68-8.184-8.68c-6.076,0-10.539,4.153-10.539,10.044v19.343c0,0.372-0.187,0.558-0.559,0.558h-1.363
			c-0.372,0-0.559-0.186-0.559-0.558v-30.379c0-0.372,0.187-0.558,0.559-0.558h1.363c0.372,0,0.559,0.186,0.559,0.558v5.332
			c0.93-2.852,4.401-6.634,10.911-6.634c5.518,0,8.68,2.542,9.671,6.882c1.364-3.41,4.836-6.882,11.47-6.882
			c6.882,0,10.229,4.278,10.229,10.85v20.831c0,0.372-0.187,0.558-0.558,0.558h-1.303c-0.372,0-0.558-0.186-0.558-0.558v-20.646
			c0-5.455-2.355-8.741-8.184-8.741c-6.014,0-10.539,3.906-10.539,9.672V208.527z"/>
		<path fill="#666666" d="M781.365,193.275c0-10.477,5.27-16.429,14.259-16.429s14.259,5.952,14.259,16.429
			c0,10.478-5.27,16.43-14.259,16.43S781.365,203.753,781.365,193.275z M807.342,193.275c0-9.237-4.092-14.196-11.718-14.196
			c-7.688,0-11.779,4.959-11.779,14.196c0,9.238,4.092,14.197,11.779,14.197C803.25,207.473,807.342,202.514,807.342,193.275z"/>
		<path fill="#666666" d="M852.23,208.527c0,0.372-0.124,0.558-0.496,0.558h-1.364c-0.371,0-0.558-0.186-0.558-0.558v-42.344
			c0-0.372,0.187-0.559,0.558-0.559h1.364c0.372,0,0.558,0.187,0.558,0.559v18.351c1.86-4.96,6.2-7.688,12.027-7.688
			c8.68,0,13.702,5.89,13.702,16.429c0,10.602-5.022,16.43-13.702,16.43c-5.827,0-10.167-2.542-12.089-7.563V208.527z
			 M864.072,207.473c7.501,0,11.469-4.835,11.469-14.197c0-9.361-3.968-14.196-11.469-14.196c-7.564,0-11.78,5.021-11.78,14.196
			C852.292,202.451,856.508,207.473,864.072,207.473z"/>
		<path fill="#666666" d="M920.307,172.135c0,0.372-0.124,0.559-0.496,0.559h-1.364c-0.372,0-0.558-0.187-0.558-0.559v-5.27
			c0-0.372,0.186-0.558,0.558-0.558h1.364c0.372,0,0.496,0.186,0.496,0.558V172.135z M920.307,208.527
			c0,0.372-0.124,0.558-0.496,0.558h-1.364c-0.372,0-0.558-0.186-0.558-0.558v-30.379c0-0.372,0.186-0.558,0.558-0.558h1.364
			c0.372,0,0.496,0.186,0.496,0.558V208.527z"/>
		<path fill="#666666" d="M964.698,208.527c0,0.372-0.124,0.558-0.496,0.558h-1.364c-0.372,0-0.558-0.186-0.558-0.558v-42.344
			c0-0.372,0.186-0.559,0.558-0.559h1.364c0.372,0,0.496,0.187,0.496,0.559V208.527z"/>
		<path fill="#666666" d="M1028.557,205.551c0.372-0.248,0.619,0,0.743,0.311l0.435,1.054c0.124,0.31-0.062,0.434-0.372,0.62
			c-2.418,1.302-5.828,2.294-9.733,2.294c-9.672,0-15.003-6.2-15.003-16.491c0-10.415,4.959-16.491,13.825-16.491
			c8.741,0,13.143,6.324,13.143,15.003v2.046c0,0.435-0.186,0.559-0.558,0.559h-23.931c0.248,8.121,4.464,13.205,12.585,13.205
			C1023.473,207.659,1026.139,206.854,1028.557,205.551z M1007.105,192.346h22.07v-0.558c0-7.502-3.285-12.771-10.725-12.771
			C1011.135,179.017,1007.291,183.729,1007.105,192.346z"/>
	</g>
	<g>
		<path fill="#3DB5F5" d="M66.926,100.685L24.563,28.775V139.31c0,1.067-0.534,1.602-1.603,1.602h-4.094
			c-1.067,0-1.602-0.534-1.602-1.602V17.739c0-1.067,0.534-1.602,1.602-1.602h4.628c1.246,0,1.78,0.355,2.314,1.246l43.786,74.045
			l43.608-74.045c0.534-0.891,1.246-1.246,2.313-1.246h4.628c1.068,0,1.603,0.534,1.603,1.602v121.57
			c0,1.067-0.534,1.602-1.603,1.602h-4.094c-1.067,0-1.602-0.534-1.602-1.602V28.775l-42.362,71.909
			c-0.712,1.246-1.425,1.602-2.492,1.602C68.35,102.286,67.638,101.931,66.926,100.685z"/>
		<path fill="#53BAC2" d="M222.674,130.766c1.068-0.712,1.78,0,2.136,0.89l1.246,3.026c0.356,0.89-0.178,1.246-1.067,1.779
			c-6.942,3.738-16.731,6.586-27.945,6.586c-27.768,0-43.074-17.799-43.074-47.346c0-29.903,14.239-47.347,39.692-47.347
			c25.097,0,37.734,18.155,37.734,43.074v5.874c0,1.246-0.534,1.602-1.602,1.602h-68.706c0.712,23.317,12.815,37.913,36.133,37.913
			C208.078,136.817,215.732,134.503,222.674,130.766z M161.088,92.853h63.366v-1.602c0-21.537-9.434-36.667-30.793-36.667
			C172.658,54.584,161.622,68.111,161.088,92.853z"/>
		<path fill="#5FBCA7" d="M268.601,139.31c0,1.067-0.356,1.602-1.424,1.602h-3.916c-1.068,0-1.603-0.534-1.603-1.602V17.739
			c0-1.067,0.534-1.602,1.603-1.602h3.916c1.067,0,1.424,0.534,1.424,1.602V139.31z"/>
		<path fill="#6ABF8F" d="M315.946,56.898v58.203c0,15.842,3.916,20.47,16.731,20.47c4.094,0,6.942-0.712,9.612-1.246
			c1.245-0.178,1.602,0.356,1.779,1.246l0.891,3.026c0.355,0.89-0.179,1.424-1.068,1.602c-2.492,0.89-7.298,1.78-11.926,1.78
			c-16.553,0-22.961-6.942-22.961-26.344V56.898h-14.773c-1.068,0-1.602-0.534-1.602-1.603v-3.204c0-1.067,0.533-1.602,1.602-1.602
			h14.951V25.571c0-1.068,0.356-1.603,1.424-1.603h3.738c1.068,0,1.602,0.534,1.602,1.603V50.49h26.344
			c1.067,0,1.602,0.534,1.602,1.602v3.204c0,1.068-0.534,1.603-1.602,1.603H315.946z"/>
		<path fill="#71C07D" d="M377.711,34.827c0,1.067-0.356,1.602-1.424,1.602h-3.916c-1.068,0-1.603-0.534-1.603-1.602v-15.13
			c0-1.067,0.534-1.602,1.603-1.602h3.916c1.067,0,1.424,0.534,1.424,1.602V34.827z M377.711,139.31
			c0,1.067-0.356,1.602-1.424,1.602h-3.916c-1.068,0-1.603-0.534-1.603-1.602V52.092c0-1.067,0.534-1.602,1.603-1.602h3.916
			c1.067,0,1.424,0.534,1.424,1.602V139.31z"/>
		<path fill="#7DC362" d="M486.286,139.31c0,1.067-0.534,1.602-1.603,1.602h-3.737c-1.068,0-1.603-0.534-1.603-1.602V80.749
			c0-15.841-7.476-25.809-25.986-25.809c-19.046,0-32.573,12.459-32.573,29.725v54.645c0,1.067-0.534,1.602-1.602,1.602h-3.738
			c-1.068,0-1.602-0.534-1.602-1.602V52.092c0-1.067,0.533-1.602,1.602-1.602h3.738c1.067,0,1.602,0.534,1.602,1.602v15.842
			c3.738-8.365,12.993-19.579,33.641-19.579c21.716,0,31.861,12.459,31.861,31.86V139.31z"/>
		<path fill="#8FC53E" d="M591.661,128.273c0,23.14-14.417,34.353-37.2,34.353c-10.324,0-21.538-1.958-29.726-6.052
			c-0.89-0.355-1.246-0.89-1.067-1.602l1.424-3.382c0.178-0.712,0.712-1.424,1.958-0.89c8.543,3.737,18.155,5.518,27.411,5.518
			c18.867,0,30.259-8.722,30.259-28.479v-14.773c-4.806,12.994-16.91,20.647-32.039,20.647c-22.249,0-37.022-14.951-37.022-42.54
			c0-27.768,14.417-42.719,36.845-42.719c15.129,0,27.411,7.476,32.217,19.757v-16.02c0-1.067,0.533-1.602,1.602-1.602h3.738
			c1.067,0,1.602,0.534,1.602,1.602V128.273z M553.393,54.584c-19.401,0-30.615,12.282-30.615,36.489
			c0,24.028,11.214,36.311,30.615,36.311c19.757,0,31.327-14.062,31.327-37.557C584.72,66.51,573.149,54.584,553.393,54.584z"/>
		<path fill="#A7C035" d="M631,140.911c-1.067,0-1.602-0.534-1.602-1.602V17.917c0-1.067,0.534-1.779,1.602-1.779h30.793
			c35.243,0,50.194,12.104,50.194,42.185s-14.951,42.006-50.194,42.006h-25.097v38.981c0,1.067-0.534,1.602-1.603,1.602H631z
			 M661.793,93.387c30.615,0,42.541-9.434,42.541-35.064c0-25.81-11.926-35.243-42.541-35.243h-25.097v70.308H661.793z"/>
		<path fill="#C0BB2C" d="M736.197,95.522c0-30.081,15.129-47.168,40.938-47.168c25.809,0,40.938,17.087,40.938,47.168
			s-15.13,47.169-40.938,47.169C751.326,142.691,736.197,125.604,736.197,95.522z M810.776,95.522
			c0-26.521-11.748-40.761-33.641-40.761c-22.071,0-33.819,14.24-33.819,40.761c0,26.521,11.748,40.761,33.819,40.761
			C799.028,136.283,810.776,122.044,810.776,95.522z"/>
		<path fill="#D3B725" d="M855.634,34.827c0,1.067-0.356,1.602-1.424,1.602h-3.916c-1.068,0-1.603-0.534-1.603-1.602v-15.13
			c0-1.067,0.534-1.602,1.603-1.602h3.916c1.067,0,1.424,0.534,1.424,1.602V34.827z M855.634,139.31
			c0,1.067-0.356,1.602-1.424,1.602h-3.916c-1.068,0-1.603-0.534-1.603-1.602V52.092c0-1.067,0.534-1.602,1.603-1.602h3.916
			c1.067,0,1.424,0.534,1.424,1.602V139.31z"/>
		<path fill="#E2B320" d="M964.21,139.31c0,1.067-0.534,1.602-1.603,1.602h-3.737c-1.068,0-1.603-0.534-1.603-1.602V80.749
			c0-15.841-7.476-25.809-25.986-25.809c-19.046,0-32.573,12.459-32.573,29.725v54.645c0,1.067-0.534,1.602-1.602,1.602h-3.738
			c-1.068,0-1.602-0.534-1.602-1.602V52.092c0-1.067,0.533-1.602,1.602-1.602h3.738c1.067,0,1.602,0.534,1.602,1.602v15.842
			c3.738-8.365,12.993-19.579,33.641-19.579c21.716,0,31.861,12.459,31.861,31.86V139.31z"/>
		<path fill="#F7AF19" d="M1010.135,56.898v58.203c0,15.842,3.916,20.47,16.731,20.47c4.094,0,6.942-0.712,9.612-1.246
			c1.245-0.178,1.602,0.356,1.779,1.246l0.891,3.026c0.355,0.89-0.179,1.424-1.068,1.602c-2.492,0.89-7.298,1.78-11.926,1.78
			c-16.553,0-22.961-6.942-22.961-26.344V56.898H988.42c-1.068,0-1.602-0.534-1.602-1.603v-3.204c0-1.067,0.533-1.602,1.602-1.602
			h14.951V25.571c0-1.068,0.356-1.603,1.424-1.603h3.738c1.068,0,1.602,0.534,1.602,1.603V50.49h26.344
			c1.067,0,1.602,0.534,1.602,1.602v3.204c0,1.068-0.534,1.603-1.602,1.603H1010.135z"/>
	</g>
</g>
</svg>
