<?xml version="1.0" encoding="utf-8"?>
<!-- Generator: Adobe Illustrator 18.1.1, SVG Export Plug-In . SVG Version: 6.00 Build 0)  -->
<!DOCTYPE svg PUBLIC "-//W3C//DTD SVG 1.1//EN" "http://www.w3.org/Graphics/SVG/1.1/DTD/svg11.dtd">
<svg version="1.1" id="Layer_1" xmlns="http://www.w3.org/2000/svg" xmlns:xlink="http://www.w3.org/1999/xlink" x="0px" y="0px"
	 viewBox="-8 214 528 92" enable-background="new -8 214 528 92" xml:space="preserve">
<g>
	<g>
		<g>
			<circle fill="#F7AF19" cx="301.315" cy="296.243" r="7.407"/>
			<circle fill="#E2B031" cx="270.847" cy="296.266" r="6.717"/>
			<circle fill="#CEB04A" cx="240.379" cy="296.288" r="6.028"/>
			<circle fill="#B9B162" cx="209.911" cy="296.31" r="5.338"/>
			<circle fill="#A4B27B" cx="179.443" cy="296.332" r="4.648"/>
			<circle fill="#90B293" cx="148.975" cy="296.355" r="3.959"/>
			<circle fill="#7BB3AC" cx="118.507" cy="296.377" r="3.269"/>
			<circle fill="#66B4C4" cx="88.038" cy="296.399" r="2.58"/>
			<circle fill="#52B4DD" cx="57.57" cy="296.421" r="1.89"/>
			<circle fill="#3DB5F5" cx="27.102" cy="296.444" r="1.201"/>
		</g>
	</g>
	<g>
		<path fill="#666666" d="M342.722,302.965c0,0.167-0.084,0.251-0.252,0.251h-0.586c-0.195,0-0.251-0.084-0.251-0.251v-9.322
			c0-2.428-1.061-3.908-3.684-3.908c-2.735,0-4.745,1.87-4.745,4.522v8.708c0,0.167-0.084,0.251-0.252,0.251h-0.614
			c-0.167,0-0.252-0.084-0.252-0.251v-13.677c0-0.167,0.084-0.251,0.252-0.251h0.614c0.167,0,0.252,0.084,0.252,0.251v2.4
			c0.419-1.284,1.981-2.987,4.912-2.987c2.484,0,3.908,1.144,4.354,3.098c0.614-1.535,2.177-3.098,5.164-3.098
			c3.098,0,4.605,1.926,4.605,4.885v9.378c0,0.167-0.084,0.251-0.251,0.251h-0.587c-0.167,0-0.251-0.084-0.251-0.251v-9.295
			c0-2.456-1.06-3.935-3.684-3.935c-2.708,0-4.745,1.759-4.745,4.354v8.876H342.722z"/>
		<path fill="#666666" d="M369.993,296.099c0-4.717,2.373-7.396,6.419-7.396s6.419,2.68,6.419,7.396
			c0,4.717-2.373,7.397-6.419,7.397S369.993,300.816,369.993,296.099z M381.688,296.099c0-4.159-1.842-6.391-5.276-6.391
			c-3.461,0-5.303,2.233-5.303,6.391c0,4.159,1.842,6.392,5.303,6.392C379.846,302.491,381.688,300.258,381.688,296.099z"/>
		<path fill="#666666" d="M401.897,302.965c0,0.167-0.056,0.251-0.223,0.251h-0.614c-0.167,0-0.251-0.084-0.251-0.251v-19.064
			c0-0.167,0.084-0.252,0.251-0.252h0.614c0.167,0,0.251,0.084,0.251,0.252v8.262c0.837-2.233,2.791-3.461,5.415-3.461
			c3.908,0,6.169,2.652,6.169,7.396c0,4.773-2.261,7.397-6.169,7.397c-2.623,0-4.577-1.144-5.443-3.405V302.965z M407.228,302.491
			c3.377,0,5.163-2.177,5.163-6.392c0-4.214-1.786-6.391-5.163-6.391c-3.405,0-5.303,2.26-5.303,6.391
			C401.925,300.23,403.823,302.491,407.228,302.491z"/>
		<path fill="#666666" d="M432.546,286.581c0,0.167-0.056,0.252-0.223,0.252h-0.614c-0.167,0-0.251-0.084-0.251-0.252v-2.373
			c0-0.167,0.084-0.251,0.251-0.251h0.614c0.167,0,0.223,0.084,0.223,0.251V286.581z M432.546,302.965
			c0,0.167-0.056,0.251-0.223,0.251h-0.614c-0.167,0-0.251-0.084-0.251-0.251v-13.677c0-0.167,0.084-0.251,0.251-0.251h0.614
			c0.167,0,0.223,0.084,0.223,0.251V302.965z"/>
		<path fill="#666666" d="M452.531,302.965c0,0.167-0.056,0.251-0.223,0.251h-0.614c-0.167,0-0.251-0.084-0.251-0.251v-19.064
			c0-0.167,0.084-0.252,0.251-0.252h0.614c0.167,0,0.223,0.084,0.223,0.252V302.965z"/>
		<path fill="#666666" d="M481.28,301.625c0.167-0.112,0.279,0,0.335,0.14l0.196,0.475c0.056,0.14-0.028,0.195-0.167,0.279
			c-1.089,0.586-2.624,1.033-4.382,1.033c-4.354,0-6.754-2.791-6.754-7.424c0-4.689,2.233-7.424,6.224-7.424
			c3.935,0,5.917,2.847,5.917,6.754v0.921c0,0.196-0.084,0.252-0.251,0.252h-10.774c0.112,3.656,2.01,5.945,5.666,5.945
			C478.991,302.574,480.192,302.212,481.28,301.625z M471.622,295.68h9.936v-0.251c0-3.377-1.479-5.75-4.828-5.75
			C473.437,289.68,471.706,291.801,471.622,295.68z"/>
	</g>
	<g>
		<path fill="#3DB5F5" d="M48.349,254.414L29.277,222.04v49.763c0,0.48-0.24,0.721-0.722,0.721h-1.843
			c-0.48,0-0.721-0.24-0.721-0.721v-54.732c0-0.48,0.24-0.721,0.721-0.721h2.084c0.561,0,0.801,0.16,1.042,0.561l19.713,33.335
			l19.633-33.335c0.24-0.401,0.561-0.561,1.041-0.561h2.084c0.481,0,0.722,0.24,0.722,0.721v54.731c0,0.48-0.24,0.721-0.722,0.721
			h-1.843c-0.48,0-0.721-0.24-0.721-0.721V222.04l-19.072,32.374c-0.321,0.561-0.642,0.721-1.122,0.721
			C48.99,255.135,48.669,254.975,48.349,254.414z"/>
		<path fill="#53BAC2" d="M118.467,267.957c0.481-0.321,0.801,0,0.962,0.401l0.561,1.362c0.16,0.401-0.08,0.561-0.48,0.801
			c-3.125,1.683-7.532,2.965-12.581,2.965c-12.501,0-19.392-8.013-19.392-21.315c0-13.462,6.41-21.316,17.87-21.316
			c11.299,0,16.988,8.173,16.988,19.392v2.645c0,0.561-0.24,0.721-0.721,0.721H90.741c0.321,10.497,5.769,17.069,16.267,17.069
			C111.896,270.681,115.342,269.639,118.467,267.957z M90.741,250.888h28.528v-0.721c0-9.696-4.247-16.508-13.863-16.508
			C95.95,233.659,90.981,239.749,90.741,250.888z"/>
		<path fill="#5FBCA7" d="M139.144,271.803c0,0.48-0.16,0.721-0.641,0.721h-1.763c-0.481,0-0.722-0.24-0.722-0.721v-54.732
			c0-0.48,0.24-0.721,0.722-0.721h1.763c0.48,0,0.641,0.24,0.641,0.721V271.803z"/>
		<path fill="#6ABF8F" d="M160.459,234.701v26.203c0,7.132,1.763,9.216,7.532,9.216c1.843,0,3.125-0.321,4.327-0.561
			c0.561-0.08,0.721,0.16,0.801,0.561l0.401,1.362c0.16,0.401-0.081,0.641-0.481,0.721c-1.122,0.401-3.286,0.801-5.369,0.801
			c-7.452,0-10.337-3.125-10.337-11.86v-26.444h-6.651c-0.481,0-0.721-0.24-0.721-0.722v-1.442c0-0.48,0.24-0.721,0.721-0.721h6.731
			v-11.218c0-0.481,0.16-0.722,0.641-0.722h1.683c0.481,0,0.721,0.24,0.721,0.722v11.219h11.86c0.48,0,0.721,0.24,0.721,0.721v1.442
			c0,0.481-0.24,0.722-0.721,0.722L160.459,234.701L160.459,234.701z"/>
		<path fill="#71C07D" d="M188.266,224.764c0,0.48-0.16,0.721-0.641,0.721h-1.763c-0.481,0-0.722-0.24-0.722-0.721v-6.812
			c0-0.48,0.24-0.721,0.722-0.721h1.763c0.48,0,0.641,0.24,0.641,0.721V224.764z M188.266,271.803c0,0.48-0.16,0.721-0.641,0.721
			h-1.763c-0.481,0-0.722-0.24-0.722-0.721v-39.266c0-0.48,0.24-0.721,0.722-0.721h1.763c0.48,0,0.641,0.24,0.641,0.721V271.803z"/>
		<path fill="#7DC362" d="M237.147,271.803c0,0.48-0.24,0.721-0.722,0.721h-1.682c-0.481,0-0.722-0.24-0.722-0.721v-26.364
			c0-7.132-3.366-11.619-11.699-11.619c-8.575,0-14.665,5.609-14.665,13.382v24.601c0,0.48-0.24,0.721-0.721,0.721h-1.683
			c-0.481,0-0.721-0.24-0.721-0.721v-39.266c0-0.48,0.24-0.721,0.721-0.721h1.683c0.48,0,0.721,0.24,0.721,0.721v7.132
			c1.683-3.766,5.85-8.815,15.145-8.815c9.777,0,14.344,5.609,14.344,14.344V271.803z"/>
		<path fill="#8FC53E" d="M284.587,266.834c0,10.418-6.491,15.466-16.748,15.466c-4.648,0-9.697-0.881-13.383-2.725
			c-0.401-0.16-0.561-0.401-0.48-0.721l0.641-1.523c0.08-0.321,0.321-0.641,0.882-0.401c3.846,1.682,8.173,2.484,12.341,2.484
			c8.494,0,13.623-3.927,13.623-12.821v-6.651c-2.164,5.85-7.613,9.295-14.424,9.295c-10.017,0-16.667-6.731-16.667-19.152
			c0-12.501,6.491-19.232,16.588-19.232c6.811,0,12.341,3.366,14.504,8.895v-7.212c0-0.48,0.24-0.721,0.721-0.721h1.683
			c0.48,0,0.721,0.24,0.721,0.721L284.587,266.834L284.587,266.834z M267.359,233.659c-8.734,0-13.783,5.529-13.783,16.428
			c0,10.818,5.049,16.347,13.783,16.347c8.895,0,14.104-6.331,14.104-16.908C281.462,239.028,276.253,233.659,267.359,233.659z"/>
		<path fill="#A7C035" d="M302.298,272.524c-0.48,0-0.721-0.24-0.721-0.721v-54.651c0-0.48,0.24-0.801,0.721-0.801h13.863
			c15.867,0,22.598,5.449,22.598,18.992c0,13.543-6.731,18.911-22.598,18.911h-11.299v17.549c0,0.48-0.24,0.721-0.722,0.721
			L302.298,272.524L302.298,272.524z M316.161,251.128c13.783,0,19.152-4.247,19.152-15.786c0-11.62-5.369-15.867-19.152-15.867
			h-11.299v31.653L316.161,251.128L316.161,251.128z"/>
		<path fill="#C0BB2C" d="M349.658,252.09c0-13.543,6.811-21.235,18.431-21.235c11.619,0,18.431,7.693,18.431,21.235
			c0,13.543-6.812,21.236-18.431,21.236C356.469,273.325,349.658,265.633,349.658,252.09z M383.234,252.09
			c0-11.94-5.289-18.351-15.145-18.351c-9.936,0-15.225,6.411-15.225,18.351c0,11.94,5.289,18.351,15.225,18.351
			C377.945,270.44,383.234,264.03,383.234,252.09z"/>
		<path fill="#D3B725" d="M403.429,224.764c0,0.48-0.16,0.721-0.641,0.721h-1.763c-0.481,0-0.722-0.24-0.722-0.721v-6.812
			c0-0.48,0.24-0.721,0.722-0.721h1.763c0.48,0,0.641,0.24,0.641,0.721V224.764z M403.429,271.803c0,0.48-0.16,0.721-0.641,0.721
			h-1.763c-0.481,0-0.722-0.24-0.722-0.721v-39.266c0-0.48,0.24-0.721,0.722-0.721h1.763c0.48,0,0.641,0.24,0.641,0.721V271.803z"/>
		<path fill="#E2B320" d="M452.311,271.803c0,0.48-0.24,0.721-0.722,0.721h-1.682c-0.481,0-0.722-0.24-0.722-0.721v-26.364
			c0-7.132-3.366-11.619-11.699-11.619c-8.575,0-14.665,5.609-14.665,13.382v24.601c0,0.48-0.24,0.721-0.721,0.721h-1.683
			c-0.481,0-0.721-0.24-0.721-0.721v-39.266c0-0.48,0.24-0.721,0.721-0.721h1.683c0.48,0,0.721,0.24,0.721,0.721v7.132
			c1.683-3.766,5.85-8.815,15.145-8.815c9.777,0,14.344,5.609,14.344,14.344L452.311,271.803L452.311,271.803z"/>
		<path fill="#F7AF19" d="M472.987,234.701v26.203c0,7.132,1.763,9.216,7.532,9.216c1.843,0,3.125-0.321,4.327-0.561
			c0.561-0.08,0.721,0.16,0.801,0.561l0.401,1.362c0.16,0.401-0.081,0.641-0.481,0.721c-1.122,0.401-3.286,0.801-5.369,0.801
			c-7.452,0-10.337-3.125-10.337-11.86v-26.444h-6.651c-0.481,0-0.721-0.24-0.721-0.722v-1.442c0-0.48,0.24-0.721,0.721-0.721h6.731
			v-11.218c0-0.481,0.16-0.722,0.641-0.722h1.683c0.481,0,0.721,0.24,0.721,0.722v11.219h11.86c0.48,0,0.721,0.24,0.721,0.721v1.442
			c0,0.481-0.24,0.722-0.721,0.722L472.987,234.701L472.987,234.701z"/>
	</g>
</g>
</svg>
