<?xml version="1.0" encoding="utf-8"?>
<!-- Generator: Adobe Illustrator 18.1.1, SVG Export Plug-In . SVG Version: 6.00 Build 0)  -->
<!DOCTYPE svg PUBLIC "-//W3C//DTD SVG 1.1//EN" "http://www.w3.org/Graphics/SVG/1.1/DTD/svg11.dtd">
<svg version="1.1" id="Layer_1" xmlns:sketch="http://www.bohemiancoding.com/sketch/ns"
	 xmlns="http://www.w3.org/2000/svg" xmlns:xlink="http://www.w3.org/1999/xlink" x="0px" y="0px" viewBox="460 -15 1440 550"
	 enable-background="new 460 -15 1440 550" xml:space="preserve">
<title>topGraphGrp</title>
<desc>Created with Sketch.</desc>
<g id="Page-1" sketch:type="MSPage">
	<g id="White-BG-whiteFillNoIcons" transform="translate(0.000000, -441.000000)" sketch:type="MSArtboardGroup">
		<g id="topGraphGrp" transform="translate(-22.000000, 512.000000)" sketch:type="MSLayerGroup">
			<g id="topGraphPath_1_" sketch:type="MSShapeGroup">

					<image overflow="visible" opacity="0.11" width="1878" height="793" xlink:href="1C692D53C864F05F.png"  transform="matrix(1 0 0 1 231 -196)">
				</image>
				<g>
					<polyline fill="#FFFFFF" points="386,464 460,390.6 646,342.6 734.1,329.8 812,284.6 906.1,233.8 1013.8,204.3 
						1123.6,204.3 1242.5,209.6 1536,144.6 1954,-15 1954,469 					"/>
					<polyline fill="none" stroke="#6CAD44" stroke-width="3" points="386,464 460,390.6 646,342.6 734.1,329.8 812,284.6
						906.1,233.8 1013.8,204.3 1123.6,204.3 1242.5,209.6 1536,144.6 1954,-15 1954,469 					"/>
				</g>
			</g>
			<g id="graphOval" transform="translate(778.000000, 219.000000)" sketch:type="MSShapeGroup">

					<ellipse id="Oval-1" fill="#D8D8D8" fill-opacity="0.42" stroke="#A0A0A0" stroke-width="2" stroke-opacity="0.5" cx="465" cy="-9.7" rx="5" ry="5.3"/>
			</g>
			<g id="graphOval-Copy-17" transform="translate(1070.000000, 155.000000)" sketch:type="MSShapeGroup">

					<ellipse id="Oval-1_1_" fill="#D8D8D8" fill-opacity="0.42" stroke="#A0A0A0" stroke-width="2" stroke-opacity="0.5" cx="465" cy="-9.7" rx="5" ry="5.3"/>
			</g>
			<g id="graphOval-Copy-2" transform="translate(438.000000, 243.000000)" sketch:type="MSShapeGroup">

					<ellipse id="Oval-1_2_" fill="#D8D8D8" fill-opacity="0.42" stroke="#A0A0A0" stroke-width="2" stroke-opacity="0.5" cx="465" cy="-9.7" rx="5" ry="5.3"/>
			</g>
			<g id="graphOval-Copy-3" transform="translate(269.000000, 340.000000)" sketch:type="MSShapeGroup">

					<ellipse id="Oval-1_3_" fill="#D8D8D8" fill-opacity="0.42" stroke="#A0A0A0" stroke-width="2" stroke-opacity="0.5" cx="465" cy="-9.7" rx="5" ry="5.3"/>
			</g>
			<g id="graphOval-Copy-4" transform="translate(181.000000, 353.000000)" sketch:type="MSShapeGroup">

					<ellipse id="Oval-1_4_" fill="#D8D8D8" fill-opacity="0.42" stroke="#A0A0A0" stroke-width="2" stroke-opacity="0.5" cx="465" cy="-9.7" rx="5" ry="5.3"/>
			</g>
			<g id="graphOval-Copy" transform="translate(549.000000, 214.000000)" sketch:type="MSShapeGroup">

					<ellipse id="Oval-1_5_" fill="#D8D8D8" fill-opacity="0.42" stroke="#A0A0A0" stroke-width="2" stroke-opacity="0.5" cx="465" cy="-9.7" rx="5" ry="5.3"/>
			</g>
		</g>
	</g>
</g>
</svg>
